# xmcd
# 
# Track frame offsets:
#     150
#     18294
#     34668
#     49780
#     68904
#     89397
#     115866
#     135808
#     155893
# 
# Disc length: 2231
# 
# Revision: 1
# Processed by: cddbd v1.5.2PL0 Copyright (c) Steve Scherf et al.
# Submitted via: fre:ac v1.0.27
# 
DISCID=6d08b509
DTITLE=Jim Kahr - My Guitar And I Have Travelled
DYEAR=0
DGENRE=Blues
TTITLE0=Nothin' to lose
TTITLE1=You oughta know
TTITLE2=Crossed many roads
TTITLE3=Where we goin'?
TTITLE4=Miss that ol feelin'
TTITLE5=Driftin mandolin (live version)
TTITLE6=That's allright
TTITLE7=Wondering why
TTITLE8=Little red rooster (live version)
EXTD=UNPLUGGED VISIONS
EXTT0=
EXTT1=
EXTT2=
EXTT3=
EXTT4=
EXTT5=
EXTT6=
EXTT7=
EXTT8=
PLAYORDER=
